<?xml version="1.0" encoding="UTF-8"?>
<svg id="Capa_1" xmlns="http://www.w3.org/2000/svg" version="1.1" viewBox="0 0 32 28.01">
  <!-- Generator: Adobe Illustrator 29.6.0, SVG Export Plug-In . SVG Version: 2.1.1 Build 207)  -->
  <defs>
    <style>
      .st0 {
        fill: #fff;
      }

      .st1 {
        fill: #ecb301;
      }
    </style>
  </defs>
  <path class="st1" d="M32,6.26C31.96,2.8,29.15,0,25.67,0h-1.65C20.56,0,17.76,2.8,17.76,6.26s2.65,6.1,5.97,6.25h0c7.2,0,8.28,2.58,8.28,2.58V6.26h0Z"/>
  <path class="st0" d="M7.98,0H2.92C1.31,0,0,1.31,0,2.92v6.67c0,1.61,1.31,2.92,2.92,2.92h5.06c3.46,0,6.26-2.8,6.26-6.26S11.44,0,7.98,0"/>
  <path class="st0" d="M7.98,15.49H2.92c-1.61,0-2.92,1.31-2.92,2.92v6.67c0,1.61,1.31,2.92,2.92,2.92h5.06c3.46,0,6.26-2.8,6.26-6.26s-2.8-6.26-6.26-6.26"/>
  <path class="st0" d="M26.03,15.5h0c-7.2,0-8.28-2.58-8.28-2.58v8.83h0c.03,3.46,2.85,6.26,6.33,6.26h1.65c3.46,0,6.26-2.8,6.26-6.26s-2.65-6.1-5.97-6.25"/>
</svg>