<?xml version="1.0" encoding="UTF-8"?>
<svg id="Capa_1" xmlns="http://www.w3.org/2000/svg" version="1.1" viewBox="0 0 485.28 512">
  <!-- Generator: Adobe Illustrator 29.6.0, SVG Export Plug-In . SVG Version: 2.1.1 Build 207)  -->
  <defs>
    <style>
      .st0 {
        fill: #fff;
      }

      .st1 {
        fill: #ecb301;
      }
    </style>
  </defs>
  <path class="st1" d="M485.26,92.57C484.74,41.36,443.09,0,391.75,0h-24.44C316.2,0,274.76,41.44,274.76,92.55s39.17,90.23,88.32,92.44l-.14.11c106.41,0,122.35,38.02,122.35,38.02V92.55l-.03.02Z"/>
  <g>
    <path class="st0" d="M20.68,462.57h9.79l20.68,48.61h-11.1l-4.41-10.82H15.24l-4.41,10.82H0l20.68-48.61ZM31.85,490.97l-6.41-15.65-6.41,15.65h12.82Z"/>
    <path class="st0" d="M52.39,506.28l4.48-6.89c4,2.89,8.21,4.41,11.65,4.41,3.04,0,4.42-1.1,4.42-2.76v-.14c0-2.27-3.59-3.03-7.65-4.27-5.17-1.52-11.03-3.93-11.03-11.1v-.14c0-7.52,6.07-11.72,13.51-11.72,4.69,0,9.79,1.59,13.79,4.28l-4,7.24c-3.65-2.14-7.31-3.45-10-3.45s-3.86,1.1-3.86,2.55v.14c0,2.07,3.52,3.03,7.52,4.41,5.17,1.73,11.17,4.21,11.17,10.96v.14c0,8.21-6.14,11.93-14.13,11.93-5.17,0-10.96-1.73-15.86-5.58Z"/>
    <path class="st0" d="M86.79,492.91v-.14c0-10.55,7.51-19.24,18.27-19.24,12.34,0,18,9.58,18,20.06,0,.83-.07,1.79-.14,2.76h-25.72c1.03,4.76,4.34,7.24,9.03,7.24,3.52,0,6.07-1.11,8.96-3.79l6,5.31c-3.45,4.28-8.41,6.89-15.1,6.89-11.1,0-19.3-7.79-19.3-19.09ZM112.85,489.8c-.62-4.69-3.38-7.86-7.79-7.86s-7.17,3.1-8,7.86h15.79Z"/>
    <path class="st0" d="M126.63,506.28l4.48-6.89c4,2.89,8.21,4.41,11.65,4.41,3.03,0,4.41-1.1,4.41-2.76v-.14c0-2.27-3.59-3.03-7.65-4.27-5.17-1.52-11.03-3.93-11.03-11.1v-.14c0-7.52,6.07-11.72,13.51-11.72,4.69,0,9.79,1.59,13.79,4.28l-4,7.24c-3.65-2.14-7.31-3.45-10-3.45s-3.86,1.1-3.86,2.55v.14c0,2.07,3.52,3.03,7.51,4.41,5.17,1.73,11.17,4.21,11.17,10.96v.14c0,8.21-6.13,11.93-14.13,11.93-5.17,0-10.96-1.73-15.86-5.58Z"/>
    <path class="st0" d="M161.03,492.91v-.14c0-10.62,8.55-19.24,20.06-19.24s19.93,8.48,19.93,19.1v.14c0,10.62-8.55,19.24-20.06,19.24s-19.92-8.48-19.92-19.09ZM190.68,492.91v-.14c0-5.44-3.93-10.2-9.72-10.2s-9.58,4.62-9.58,10.07v.14c0,5.45,3.93,10.2,9.72,10.2s9.58-4.62,9.58-10.06Z"/>
    <path class="st0" d="M207.29,474.22h10.48v7.45c2.14-5.1,5.59-8.41,11.79-8.14v10.96h-.55c-6.96,0-11.24,4.21-11.24,13.03v13.65h-10.48v-36.96Z"/>
    <path class="st0" d="M233,492.91v-.14c0-10.55,7.52-19.24,18.27-19.24,12.34,0,17.99,9.58,17.99,20.06,0,.83-.07,1.79-.14,2.76h-25.72c1.04,4.76,4.34,7.24,9.03,7.24,3.52,0,6.07-1.11,8.96-3.79l6,5.31c-3.45,4.28-8.41,6.89-15.1,6.89-11.1,0-19.31-7.79-19.31-19.09ZM259.06,489.8c-.62-4.69-3.38-7.86-7.79-7.86s-7.17,3.1-8,7.86h15.78Z"/>
    <path class="st0" d="M272.84,506.28l4.48-6.89c4,2.89,8.21,4.41,11.65,4.41,3.03,0,4.41-1.1,4.41-2.76v-.14c0-2.27-3.59-3.03-7.65-4.27-5.17-1.52-11.03-3.93-11.03-11.1v-.14c0-7.52,6.07-11.72,13.51-11.72,4.69,0,9.79,1.59,13.79,4.28l-4,7.24c-3.65-2.14-7.31-3.45-10-3.45-2.55,0-3.86,1.1-3.86,2.55v.14c0,2.07,3.52,3.03,7.52,4.41,5.17,1.73,11.17,4.21,11.17,10.96v.14c0,8.21-6.14,11.93-14.14,11.93-5.17,0-10.96-1.73-15.85-5.58Z"/>
    <path class="st0" d="M325.5,506.28l4.48-6.89c4,2.89,8.21,4.41,11.65,4.41,3.03,0,4.41-1.1,4.41-2.76v-.14c0-2.27-3.59-3.03-7.65-4.27-5.17-1.52-11.03-3.93-11.03-11.1v-.14c0-7.52,6.07-11.72,13.51-11.72,4.69,0,9.79,1.59,13.79,4.28l-4,7.24c-3.65-2.14-7.31-3.45-10-3.45s-3.86,1.1-3.86,2.55v.14c0,2.07,3.52,3.03,7.51,4.41,5.17,1.73,11.17,4.21,11.17,10.96v.14c0,8.21-6.13,11.93-14.13,11.93-5.17,0-10.96-1.73-15.86-5.58Z"/>
    <path class="st0" d="M361.28,500.14h11.17v11.03h-11.17v-11.03Z"/>
    <path class="st0" d="M377.89,500.56v-.14c0-8.07,6.14-11.79,14.89-11.79,3.72,0,6.41.62,9.03,1.52v-.62c0-4.34-2.69-6.76-7.93-6.76-4,0-6.83.76-10.2,2l-2.62-8c4.07-1.79,8.07-2.96,14.34-2.96,5.73,0,9.86,1.51,12.48,4.14,2.76,2.76,4,6.83,4,11.79v21.44h-10.13v-4c-2.55,2.83-6.07,4.69-11.17,4.69-6.96,0-12.69-4-12.69-11.31ZM401.96,498.14v-1.86c-1.79-.83-4.14-1.38-6.69-1.38-4.48,0-7.24,1.79-7.24,5.1v.14c0,2.83,2.34,4.48,5.72,4.48,4.9,0,8.21-2.69,8.21-6.48Z"/>
    <path class="st0" d="M419.19,500.14h11.17v11.03h-11.17v-11.03Z"/>
    <path class="st0" d="M435.11,506.28l4.48-6.89c4,2.89,8.2,4.41,11.65,4.41,3.03,0,4.41-1.1,4.41-2.76v-.14c0-2.27-3.58-3.03-7.65-4.27-5.17-1.52-11.03-3.93-11.03-11.1v-.14c0-7.52,6.07-11.72,13.51-11.72,4.69,0,9.79,1.59,13.79,4.28l-4,7.24c-3.65-2.14-7.31-3.45-10-3.45-2.55,0-3.86,1.1-3.86,2.55v.14c0,2.07,3.52,3.03,7.52,4.41,5.17,1.73,11.17,4.21,11.17,10.96v.14c0,8.21-6.14,11.93-14.13,11.93-5.17,0-10.96-1.73-15.86-5.58Z"/>
    <path class="st0" d="M470.89,500.14h11.17v11.03h-11.17v-11.03Z"/>
  </g>
  <path class="st0" d="M130.23,0H55.47C31.61,0,12.26,19.35,12.26,43.22v98.66c0,23.87,19.35,43.21,43.21,43.21h74.76c51.11,0,92.55-41.44,92.55-92.55S181.35,0,130.23,0"/>
  <path class="st0" d="M130.23,228.96H55.47c-23.86,0-43.21,19.35-43.21,43.22v98.66c0,23.87,19.35,43.21,43.21,43.21h74.76c51.11,0,92.55-41.44,92.55-92.55s-41.43-92.55-92.55-92.55"/>
  <path class="st0" d="M396.97,229.06l.14-.11c-106.41,0-122.34-38.02-122.34-38.02v130.57l.03-.02c.52,51.21,42.17,92.57,93.5,92.57h24.45c51.11,0,92.55-41.44,92.55-92.55s-39.17-90.23-88.31-92.44"/>
</svg>